<mxfile host="drawio-plugin" modified="2021-09-10T19:51:55.125Z" agent="5.0 (Windows NT 6.2; Win64; x64) AppleWebKit/537.36 (KHTML, like Gecko) Chrome/89.0.4389.114 Safari/537.36" etag="n3O8sN-ti16-QRiTPydE" version="14.7.4" type="embed"><diagram id="23iRSUPoRavnBvh4doch" name="Page-1"><mxGraphModel dx="1095" dy="743" grid="1" gridSize="10" guides="1" tooltips="1" connect="1" arrows="1" fold="1" page="1" pageScale="1" pageWidth="827" pageHeight="1169" math="0" shadow="0"><root><mxCell id="0"/><mxCell id="1" parent="0"/><mxCell id="4" style="edgeStyle=orthogonalEdgeStyle;rounded=0;orthogonalLoop=1;jettySize=auto;html=1;entryX=0.5;entryY=0;entryDx=0;entryDy=0;" edge="1" parent="1" source="2" target="3"><mxGeometry relative="1" as="geometry"/></mxCell><mxCell id="2" value="начало" style="ellipse;whiteSpace=wrap;html=1;" vertex="1" parent="1"><mxGeometry x="290" y="40" width="120" height="80" as="geometry"/></mxCell><mxCell id="3" value="конец" style="ellipse;whiteSpace=wrap;html=1;" vertex="1" parent="1"><mxGeometry x="290" y="600" width="120" height="80" as="geometry"/></mxCell><mxCell id="5" value="создание нового CSV" style="shape=parallelogram;perimeter=parallelogramPerimeter;whiteSpace=wrap;html=1;fixedSize=1;" vertex="1" parent="1"><mxGeometry x="290" y="160" width="120" height="60" as="geometry"/></mxCell><mxCell id="6" value="новый CSV копирует все записи из оригинального CSV" style="rounded=0;whiteSpace=wrap;html=1;" vertex="1" parent="1"><mxGeometry x="294" y="260" width="120" height="60" as="geometry"/></mxCell><mxCell id="12" value="" style="edgeStyle=orthogonalEdgeStyle;rounded=0;orthogonalLoop=1;jettySize=auto;html=1;" edge="1" parent="1" target="11"><mxGeometry relative="1" as="geometry"><mxPoint x="390" y="510" as="sourcePoint"/></mxGeometry></mxCell><mxCell id="11" value="удаляются" style="rounded=0;whiteSpace=wrap;html=1;" vertex="1" parent="1"><mxGeometry x="580" y="370" width="120" height="60" as="geometry"/></mxCell><mxCell id="16" value="selector определяет записи должны быть удалены" style="rhombus;whiteSpace=wrap;html=1;" vertex="1" parent="1"><mxGeometry x="245" y="345" width="210" height="110" as="geometry"/></mxCell><mxCell id="17" value="да" style="text;html=1;align=center;verticalAlign=middle;resizable=0;points=[];autosize=1;strokeColor=none;" vertex="1" parent="1"><mxGeometry x="355" y="450" width="30" height="20" as="geometry"/></mxCell><mxCell id="18" value="массив для записей, подлежащиз удалению" style="rounded=0;whiteSpace=wrap;html=1;" vertex="1" parent="1"><mxGeometry x="290" y="480" width="120" height="60" as="geometry"/></mxCell><mxCell id="19" value="нет" style="text;html=1;align=center;verticalAlign=middle;resizable=0;points=[];autosize=1;strokeColor=none;" vertex="1" parent="1"><mxGeometry x="365" y="330" width="30" height="20" as="geometry"/></mxCell></root></mxGraphModel></diagram></mxfile>